<?xml version="1.0" encoding="UTF-8" standalone="no"?>
<!-- Created with Inkscape (http://www.inkscape.org/) -->

<svg
   xmlns:dc="http://purl.org/dc/elements/1.1/"
   xmlns:cc="http://creativecommons.org/ns#"
   xmlns:rdf="http://www.w3.org/1999/02/22-rdf-syntax-ns#"
   xmlns:svg="http://www.w3.org/2000/svg"
   xmlns="http://www.w3.org/2000/svg"
   xmlns:sodipodi="http://sodipodi.sourceforge.net/DTD/sodipodi-0.dtd"
   xmlns:inkscape="http://www.inkscape.org/namespaces/inkscape"
   width="24.542765mm"
   height="24.542765mm"
   viewBox="0 0 86.962552 86.962552"
   id="svg2"
   version="1.1"
   inkscape:version="0.91 r13725"
   sodipodi:docname="hfm-logo.svg">
  <defs
     id="defs4" />
  <sodipodi:namedview
     id="base"
     pagecolor="#ffffff"
     bordercolor="#666666"
     borderopacity="1.0"
     inkscape:pageopacity="0.0"
     inkscape:pageshadow="2"
     inkscape:zoom="5.6"
     inkscape:cx="11.745967"
     inkscape:cy="50.211829"
     inkscape:document-units="px"
     inkscape:current-layer="layer1"
     showgrid="false"
     fit-margin-top="0"
     fit-margin-left="0"
     fit-margin-right="0"
     fit-margin-bottom="0"
     inkscape:window-width="1325"
     inkscape:window-height="878"
     inkscape:window-x="107"
     inkscape:window-y="172"
     inkscape:window-maximized="1" />
  <metadata
     id="metadata7">
    <rdf:RDF>
      <cc:Work
         rdf:about="">
        <dc:format>image/svg+xml</dc:format>
        <dc:type
           rdf:resource="http://purl.org/dc/dcmitype/StillImage" />
        <dc:title></dc:title>
      </cc:Work>
    </rdf:RDF>
  </metadata>
  <g
     inkscape:label="Layer 1"
     inkscape:groupmode="layer"
     id="layer1"
     transform="translate(-281.59844,-437.45025)">
    <g
       id="g4228"
       transform="matrix(0.07981015,0,0,0.07981015,308.4792,465.24883)"
       style="fill:#ffffff"
       inkscape:export-xdpi="62.095692"
       inkscape:export-ydpi="62.095692">
      <g
         id="icomoon-ignore-1"
         style="fill:#ffffff" />
      <path
         id="path4220"
         d="m 416,274.5 q 0,20.25 -11.125,33.75 -11.125,13.5 -30.875,13.5 -10.25,0 -19.375,-4.375 -9.125,-4.375 -14.75,-9.5 -5.625,-5.125 -14.125,-9.5 Q 317.25,294 308,294 q -27.5,0 -27.5,31 0,9.75 4,28.75 4,19 3.75,28.75 l 0,1.25 q -5.5,0 -8.25,0.25 -8.5,0.75 -24.375,2.875 -15.875,2.125 -28.875,3.375 -13,1.25 -24.5,1.25 -15.25,0 -25.75,-6.625 Q 166,378.25 166,364 q 0,-9.25 4.375,-17.75 4.375,-8.5 9.5,-14.125 5.125,-5.625 9.5,-14.75 4.375,-9.125 4.375,-19.375 0,-19.75 -13.5,-30.875 Q 166.75,256 146.5,256 q -21,0 -35.75,11.375 Q 96,278.75 96,299.25 96,310 99.75,320 q 3.75,10 8.375,16.125 4.625,6.125 8.375,13.25 3.75,7.125 3.75,12.625 0,11.25 -11.5,22.25 Q 99.5,393 79.5,393 55.75,393 18.25,387 16,386.5 11.375,386 6.75,385.5 4.5,385 L 1.25,384.5 Q 1,384.5 0.5,384.25 0,384.25 0,384 L 0,128 q 0.5,0.25 4.375,0.875 3.875,0.625 8.5,1.25 4.625,0.625 5.375,0.875 37.5,6 61.25,6 20,0 29.25,-8.75 11.5,-11 11.5,-22.25 0,-5.5 -3.75,-12.625 -3.75,-7.125 -8.375,-13.25 Q 103.5,74 99.75,64 96,54 96,43.25 96,22.75 110.75,11.375 125.5,0 146.75,0 q 20,0 33.5,11.125 13.5,11.125 13.5,30.875 0,10.25 -4.375,19.375 -4.375,9.125 -9.5,14.75 -5.125,5.625 -9.5,14.125 Q 166,98.75 166,108 q 0,14.25 10.5,20.875 10.5,6.625 25.75,6.625 16,0 45,-3.75 29,-3.75 40.75,-4.25 l 0,0.5 q -0.25,0.5 -0.875,4.375 -0.625,3.875 -1.25,8.5 -0.625,4.625 -0.875,5.375 -6,37.5 -6,61.25 0,20 8.75,29.25 11,11.5 22.25,11.5 5.5,0 12.625,-3.75 7.125,-3.75 13.25,-8.375 Q 342,231.5 352,227.75 362,224 372.75,224 q 20.5,0 31.875,14.75 Q 416,253.5 416,274.5 Z"
         inkscape:connector-curvature="0"
         style="fill:#ffffff" />
    </g>
    <g
       id="g4165"
       transform="matrix(10.870319,0,0,10.870319,281.59844,437.45025)"
       inkscape:export-xdpi="62.095692"
       inkscape:export-ydpi="62.095692">
      <path
         id="path4149"
         d="M 1,1 7,1 7,7 1,7 Z"
         inkscape:connector-curvature="0"
         style="fill:#00cc33" />
      <path
         id="path4151"
         d="M 0,0 2,0 4,1 1,4 0,2 Z"
         inkscape:connector-curvature="0"
         style="fill:#ffcc33" />
      <path
         id="path4153"
         d="M 4,1 6,0 8,0 8,2 7,4 Z"
         inkscape:connector-curvature="0"
         style="fill:#ff3366" />
      <path
         id="path4155"
         d="M 1,4 4,7 2,8 0,8 0,6 Z"
         inkscape:connector-curvature="0"
         style="fill:#3333ff" />
      <path
         id="path4157"
         d="M 7,4 8,6 8,8 6,8 4,7 Z"
         inkscape:connector-curvature="0"
         style="fill:#00ccff" />
    </g>
    <g
       id="g4243"
       transform="matrix(0.06208259,0,0,0.06208259,309.18626,465.03792)"
       style="fill:#ffffff"
       inkscape:export-xdpi="62.095692"
       inkscape:export-ydpi="62.095692">
      <g
         id="icomoon-ignore"
         style="fill:#ffffff" />
      <path
         id="path4235"
         d="m 377.875,287.575 c -6.975,-4.98 -14.26,-8.295 -21.735,-9.96 -4.42,-0.845 -9.03,-1.165 -13.785,-0.905 -4.495,0.25 -8.78,0.84 -12.845,1.76 -3.05,0.845 -6.11,1.945 -9.175,3.295 -9.09,4.01 -16.945,9.06 -23.395,15.165 -6.11,6.45 -11.16,14.31 -15.17,23.395 -1.35,3.06 -2.45,6.12 -3.295,9.17 -0.92,4.07 -1.515,8.35 -1.76,12.845 -0.26,4.755 0.06,9.365 0.905,13.785 1.665,7.475 4.98,14.76 9.96,21.735 1.945,2.72 4.04,5.2 6.28,7.44 10.03,10.015 22.915,15.35 37.71,17.055 4.46,0.51 9.06,0.84 13.265,2.24 2.56,0.85 4.58,2.04 6.04,3.51 3.325,3.3 3.815,8.05 1.25,13.62 -1.575,3.42 -3.85,6.725 -6.48,9.42 l -1.395,1.43 c -1.965,1.96 -3.205,3.2 -3.525,3.52 -1.565,1.58 -3.05,3.075 -4.53,4.575 l -1.48,1.46 c -5.26,5.29 -10.545,10.56 -15.83,15.825 -11.38,11.41 -22.785,22.79 -34.19,34.18 -3.75,3.75 -7.5,7.5 -11.25,11.245 -1.73,1.725 -3.535,3.19 -5.39,4.395 -0.9,0.61 -1.745,1.12 -2.59,1.58 -9.8,4.945 -20.715,2.96 -29.62,-5.94 -2.7,-2.7 -5.31,-5.31 -7.925,-7.92 -15.125,-15.125 -30.24,-30.26 -45.385,-45.365 -4.295,-4.285 -8.565,-8.54 -12.84,-12.795 -3.06,-3.045 -6.335,-5.925 -9.78,-8.53 -2.86,-2.165 -5.795,-3.78 -8.73,-4.865 -10.58,-3.66 -20.705,-1.005 -27.335,6.63 -1.905,2.4 -3.5,5.235 -4.695,8.47 -1.715,4.63 -2.3,9.735 -2.95,14.68 -2.45,18.765 -12.9,34.215 -27.99,41.325 -3.74,1.825 -7.745,3.145 -11.95,3.89 -3.975,0.705 -7.975,0.855 -11.925,0.52 C 51.035,498.78 39.6,492.91 30.085,483.17 c -0.84,-0.835 -1.05,-1.045 -1.255,-1.255 -9.74,-9.51 -15.61,-20.95 -16.285,-34.25 -0.34,-3.95 -0.185,-7.95 0.52,-11.925 0.745,-4.205 2.065,-8.215 3.89,-11.95 7.11,-15.09 22.565,-25.535 41.325,-27.985 4.945,-0.645 10.05,-1.235 14.68,-2.95 3.47,-1.28 6.48,-3.025 8.985,-5.115 7.27,-6.575 9.795,-16.315 6.42,-26.17 -1.39,-3.675 -3,-6.61 -5.165,-9.47 -2.605,-3.44 -5.485,-6.715 -8.53,-9.775 C 70.415,338.05 66.155,333.78 61.895,329.51 48.435,316.02 34.975,302.57 21.52,289.12 l -5.015,-5.015 c -2.61,-2.61 -5.225,-5.225 -7.63,-7.635 -9.195,-9.2 -11.175,-20.11 -6.23,-29.91 0.46,-0.845 0.97,-1.685 1.54,-2.525 1.245,-1.92 2.71,-3.725 4.435,-5.455 3.745,-3.75 7.495,-7.5 11.245,-11.25 11.385,-11.405 22.77,-22.81 34.18,-34.19 5.265,-5.285 10.53,-10.57 15.825,-15.83 l 1.46,-1.48 c 1.495,-1.485 2.995,-2.965 4.49,-4.45 0.4,-0.405 1.64,-1.645 3.6,-3.61 l 1.43,-1.395 c 2.695,-2.63 6,-4.9 9.42,-6.48 5.57,-2.565 10.315,-2.075 13.62,1.25 1.47,1.46 2.66,3.48 3.51,6.04 1.395,4.205 1.725,8.805 2.24,13.265 1.705,14.795 7.04,27.675 17.055,37.705 2.245,2.24 4.72,4.335 7.44,6.28 6.975,4.98 14.26,8.295 21.735,9.96 4.42,0.845 9.03,1.165 13.785,0.905 4.495,-0.25 8.78,-0.84 12.845,-1.76 3.05,-0.845 6.11,-1.945 9.175,-3.295 9.09,-4.01 16.945,-9.06 23.395,-15.165 6.11,-6.45 11.16,-14.31 15.17,-23.395 1.35,-3.06 2.45,-6.12 3.295,-9.17 0.92,-4.07 1.515,-8.35 1.76,-12.845 0.26,-4.755 -0.06,-9.365 -0.905,-13.785 -1.665,-7.475 -4.98,-14.76 -9.96,-21.735 -1.945,-2.72 -4.04,-5.2 -6.28,-7.44 -10.03,-10.015 -22.915,-15.35 -37.71,-17.055 -4.46,-0.51 -9.06,-0.84 -13.265,-2.24 -2.56,-0.85 -4.58,-2.04 -6.04,-3.51 -3.325,-3.3 -3.815,-8.05 -1.25,-13.62 1.575,-3.42 3.85,-6.725 6.48,-9.42 l 1.395,-1.43 c 1.965,-1.96 3.205,-3.2 3.525,-3.52 1.565,-1.58 3.05,-3.075 4.53,-4.575 l 1.48,-1.46 c 5.26,-5.29 10.545,-10.56 15.83,-15.825 11.38,-11.41 22.785,-22.79 34.19,-34.175 3.75,-3.75 7.5,-7.5 11.25,-11.245 1.73,-1.725 3.535,-3.19 5.39,-4.395 0.9,-0.61 1.745,-1.12 2.59,-1.58 9.8,-4.945 20.715,-2.96 29.62,5.94 2.7,2.7 5.31,5.31 7.925,7.92 15.125,15.125 30.24,30.26 45.385,45.365 4.295,4.285 8.565,8.54 12.84,12.795 3.06,3.045 6.335,5.925 9.78,8.53 2.86,2.165 5.795,3.78 8.73,4.865 10.58,3.66 20.705,1.005 27.335,-6.63 1.905,-2.4 3.5,-5.235 4.695,-8.47 1.715,-4.63 2.3,-9.735 2.95,-14.68 2.45,-18.765 12.9,-34.215 27.99,-41.325 3.74,-1.825 7.745,-3.14 11.95,-3.89 3.975,-0.705 7.975,-0.855 11.925,-0.52 13.305,0.675 24.74,6.545 34.255,16.285 0.84,0.835 1.05,1.045 1.255,1.255 9.74,9.51 15.61,20.95 16.285,34.25 0.34,3.95 0.185,7.95 -0.52,11.925 -0.745,4.205 -2.065,8.215 -3.89,11.95 -7.11,15.09 -22.565,25.535 -41.325,27.985 -4.945,0.645 -10.05,1.235 -14.68,2.95 -3.47,1.28 -6.48,3.025 -8.985,5.115 -7.27,6.575 -9.795,16.315 -6.42,26.17 1.39,3.675 3,6.61 5.165,9.47 2.605,3.44 5.485,6.715 8.53,9.775 4.255,4.275 8.515,8.545 12.775,12.815 15.13,15.165 30.27,30.28 45.39,45.405 2.61,2.61 5.225,5.225 7.63,7.635 9.195,9.2 11.175,20.11 6.23,29.91 -0.46,0.845 -0.97,1.685 -1.54,2.525 -1.245,1.92 -2.71,3.725 -4.435,5.455 -3.745,3.75 -7.495,7.5 -11.245,11.25 -11.385,11.405 -22.77,22.81 -34.18,34.19 -5.265,5.285 -10.53,10.57 -15.825,15.83 l -1.46,1.48 c -1.495,1.485 -2.995,2.965 -4.49,4.45 -0.4,0.405 -1.64,1.645 -3.6,3.61 l -1.43,1.395 c -2.695,2.63 -6,4.9 -9.42,6.48 -5.57,2.565 -10.315,2.075 -13.62,-1.25 -1.47,-1.46 -2.66,-3.48 -3.51,-6.04 -1.395,-4.205 -1.725,-8.805 -2.24,-13.265 -1.705,-14.795 -7.04,-27.675 -17.055,-37.705 -2.24,-2.245 -4.72,-4.345 -7.44,-6.285 z"
         inkscape:connector-curvature="0"
         style="fill:#ffffff" />
    </g>
  </g>
</svg>
